<svg height="2638" width="720" xmlns="http://www.w3.org/2000/svg">
<rect height="2638" fill="#555" width="720"></rect>
<text fill="#7f7" font-family="Courier New" font-size="12" xml:space="preserve">
<tspan x="10" y="26">134 megabytes installed</tspan>
<tspan x="10" y="42"></tspan>
<tspan x="10" y="58">node_modules</tspan>
<tspan x="10" y="74">└─┬ superscript@1.1.0 </tspan>
<tspan x="10" y="90">  ├── async@2.3.0 </tspan>
<tspan x="10" y="106">  ├─┬ commander@2.9.0 </tspan>
<tspan x="10" y="122">  │ └── graceful-readlink@1.0.1 </tspan>
<tspan x="10" y="138">  ├─┬ debug@2.6.3 </tspan>
<tspan x="10" y="154">  │ └── ms@0.7.2 </tspan>
<tspan x="10" y="170">  ├── debug-levels@0.2.0 </tspan>
<tspan x="10" y="186">  ├── lodash@4.17.4 </tspan>
<tspan x="10" y="202">  ├─┬ mkdirp@0.5.1 </tspan>
<tspan x="10" y="218">  │ └── minimist@0.0.8 </tspan>
<tspan x="10" y="234">  ├── moment@2.18.1 </tspan>
<tspan x="10" y="250">  ├── mongo-tenant@1.0.4 </tspan>
<tspan x="10" y="266">  ├─┬ mongoose@4.9.5 </tspan>
<tspan x="10" y="282">  │ ├── async@2.1.4 </tspan>
<tspan x="10" y="298">  │ ├── bson@1.0.4 </tspan>
<tspan x="10" y="314">  │ ├── hooks-fixed@2.0.0 </tspan>
<tspan x="10" y="330">  │ ├── kareem@1.2.1 </tspan>
<tspan x="10" y="346">  │ ├─┬ mongodb@2.2.25 </tspan>
<tspan x="10" y="362">  │ │ ├── es6-promise@3.2.1 </tspan>
<tspan x="10" y="378">  │ │ ├─┬ mongodb-core@2.1.9 </tspan>
<tspan x="10" y="394">  │ │ │ └─┬ require_optional@1.0.0 </tspan>
<tspan x="10" y="410">  │ │ │   ├── resolve-from@2.0.0 </tspan>
<tspan x="10" y="426">  │ │ │   └── semver@5.3.0 </tspan>
<tspan x="10" y="442">  │ │ └─┬ readable-stream@2.1.5 </tspan>
<tspan x="10" y="458">  │ │   ├── buffer-shims@1.0.0 </tspan>
<tspan x="10" y="474">  │ │   ├── core-util-is@1.0.2 </tspan>
<tspan x="10" y="490">  │ │   ├── isarray@1.0.0 </tspan>
<tspan x="10" y="506">  │ │   ├── process-nextick-args@1.0.7 </tspan>
<tspan x="10" y="522">  │ │   ├── string_decoder@0.10.31 </tspan>
<tspan x="10" y="538">  │ │   └── util-deprecate@1.0.2 </tspan>
<tspan x="10" y="554">  │ ├── mpath@0.2.1 </tspan>
<tspan x="10" y="570">  │ ├── mpromise@0.5.5 </tspan>
<tspan x="10" y="586">  │ ├─┬ mquery@2.3.0 </tspan>
<tspan x="10" y="602">  │ │ ├── bluebird@2.10.2 </tspan>
<tspan x="10" y="618">  │ │ ├─┬ debug@2.2.0 </tspan>
<tspan x="10" y="634">  │ │ │ └── ms@0.7.1 </tspan>
<tspan x="10" y="650">  │ │ └── sliced@0.0.5 </tspan>
<tspan x="10" y="666">  │ ├── muri@1.2.1 </tspan>
<tspan x="10" y="682">  │ ├── regexp-clone@0.0.1 </tspan>
<tspan x="10" y="698">  │ └── sliced@1.0.1 </tspan>
<tspan x="10" y="714">  ├─┬ natural@0.5.1 </tspan>
<tspan x="10" y="730">  │ ├── apparatus@0.0.9 </tspan>
<tspan x="10" y="746">  │ ├── sylvester@0.0.21 </tspan>
<tspan x="10" y="762">  │ ├── underscore@1.8.3 </tspan>
<tspan x="10" y="778">  │ └─┬ webworker-threads@0.7.11 </tspan>
<tspan x="10" y="794">  │   ├── bindings@1.2.1 </tspan>
<tspan x="10" y="810">  │   └── nan@2.6.2 </tspan>
<tspan x="10" y="826">  ├── pegjs@0.10.0 </tspan>
<tspan x="10" y="842">  ├── pluralize@4.0.0 </tspan>
<tspan x="10" y="858">  ├── require-dir@0.3.1 </tspan>
<tspan x="10" y="874">  ├─┬ rhymes@1.0.1 </tspan>
<tspan x="10" y="890">  │ ├── cmu-pronouncing-dictionary@1.0.3 </tspan>
<tspan x="10" y="906">  │ ├─┬ code@1.5.0 </tspan>
<tspan x="10" y="922">  │ │ └── hoek@2.16.3 </tspan>
<tspan x="10" y="938">  │ ├── lodash@3.10.1 </tspan>
<tspan x="10" y="954">  │ └── object-values@1.0.0 </tspan>
<tspan x="10" y="970">  ├── roman-numerals@0.3.2 </tspan>
<tspan x="10" y="986">  ├── safe-eval@0.3.0 </tspan>
<tspan x="10" y="1002">  ├─┬ sfacts@1.0.1 </tspan>
<tspan x="10" y="1018">  │ ├─┬ level-sublevel@6.6.1 </tspan>
<tspan x="10" y="1034">  │ │ ├─┬ bytewise@1.1.0 </tspan>
<tspan x="10" y="1050">  │ │ │ ├─┬ bytewise-core@1.2.3 </tspan>
<tspan x="10" y="1066">  │ │ │ │ └── typewise-core@1.2.0 </tspan>
<tspan x="10" y="1082">  │ │ │ └── typewise@1.0.3 </tspan>
<tspan x="10" y="1098">  │ │ ├─┬ levelup@0.19.1 </tspan>
<tspan x="10" y="1114">  │ │ │ ├─┬ bl@0.8.2 </tspan>
<tspan x="10" y="1130">  │ │ │ │ └─┬ readable-stream@1.0.34 </tspan>
<tspan x="10" y="1146">  │ │ │ │   └── isarray@0.0.1 </tspan>
<tspan x="10" y="1162">  │ │ │ ├─┬ deferred-leveldown@0.2.0 </tspan>
<tspan x="10" y="1178">  │ │ │ │ └─┬ abstract-leveldown@0.12.4 </tspan>
<tspan x="10" y="1194">  │ │ │ │   └── xtend@3.0.0 </tspan>
<tspan x="10" y="1210">  │ │ │ ├── errno@0.1.4 </tspan>
<tspan x="10" y="1226">  │ │ │ ├── prr@0.0.0 </tspan>
<tspan x="10" y="1242">  │ │ │ ├─┬ readable-stream@1.0.34 </tspan>
<tspan x="10" y="1258">  │ │ │ │ └── isarray@0.0.1 </tspan>
<tspan x="10" y="1274">  │ │ │ ├── semver@5.1.1 </tspan>
<tspan x="10" y="1290">  │ │ │ └── xtend@3.0.0 </tspan>
<tspan x="10" y="1306">  │ │ ├── ltgt@2.1.3 </tspan>
<tspan x="10" y="1322">  │ │ ├─┬ pull-level@2.0.3 </tspan>
<tspan x="10" y="1338">  │ │ │ ├── level-post@1.0.5 </tspan>
<tspan x="10" y="1354">  │ │ │ ├── pull-cat@1.1.11 </tspan>
<tspan x="10" y="1370">  │ │ │ ├── pull-live@1.0.1 </tspan>
<tspan x="10" y="1386">  │ │ │ ├── pull-pushable@2.0.1 </tspan>
<tspan x="10" y="1402">  │ │ │ ├─┬ pull-window@2.1.4 </tspan>
<tspan x="10" y="1418">  │ │ │ │ └── looper@2.0.0 </tspan>
<tspan x="10" y="1434">  │ │ │ └─┬ stream-to-pull-stream@1.7.2 </tspan>
<tspan x="10" y="1450">  │ │ │   └── looper@3.0.0 </tspan>
<tspan x="10" y="1466">  │ │ ├── pull-stream@3.5.0 </tspan>
<tspan x="10" y="1482">  │ │ ├── typewiselite@1.0.0 </tspan>
<tspan x="10" y="1498">  │ │ └── xtend@4.0.1 </tspan>
<tspan x="10" y="1514">  │ ├─┬ levelgraph@2.0.1 </tspan>
<tspan x="10" y="1530">  │ │ ├── callback-stream@1.1.0 </tspan>
<tspan x="10" y="1546">  │ │ ├── inherits@2.0.3 </tspan>
<tspan x="10" y="1562">  │ │ ├─┬ level-ws@0.0.1 </tspan>
<tspan x="10" y="1578">  │ │ │ ├── readable-stream@2.0.6 </tspan>
<tspan x="10" y="1594">  │ │ │ └─┬ xtend@2.1.2 </tspan>
<tspan x="10" y="1610">  │ │ │   └── object-keys@0.4.0 </tspan>
<tspan x="10" y="1626">  │ │ ├── lodash.keys@4.2.0 </tspan>
<tspan x="10" y="1642">  │ │ ├─┬ pump@1.0.2 </tspan>
<tspan x="10" y="1658">  │ │ │ └── end-of-stream@1.4.0 </tspan>
<tspan x="10" y="1674">  │ │ └─┬ steed@1.1.3 </tspan>
<tspan x="10" y="1690">  │ │   ├── fastfall@1.5.1 </tspan>
<tspan x="10" y="1706">  │ │   ├── fastparallel@2.3.0 </tspan>
<tspan x="10" y="1722">  │ │   ├── fastq@1.5.0 </tspan>
<tspan x="10" y="1738">  │ │   ├── fastseries@1.7.2 </tspan>
<tspan x="10" y="1754">  │ │   └── reusify@1.0.1 </tspan>
<tspan x="10" y="1770">  │ ├── levelgraph-recursive@0.0.1 </tspan>
<tspan x="10" y="1786">  │ ├─┬ levelup@1.3.5 </tspan>
<tspan x="10" y="1802">  │ │ ├─┬ deferred-leveldown@1.2.1 </tspan>
<tspan x="10" y="1818">  │ │ │ └── abstract-leveldown@2.4.1 </tspan>
<tspan x="10" y="1834">  │ │ ├── level-codec@6.1.0 </tspan>
<tspan x="10" y="1850">  │ │ ├── level-errors@1.0.4 </tspan>
<tspan x="10" y="1866">  │ │ ├─┬ level-iterator-stream@1.3.1 </tspan>
<tspan x="10" y="1882">  │ │ │ └─┬ readable-stream@1.1.14 </tspan>
<tspan x="10" y="1898">  │ │ │   └── isarray@0.0.1 </tspan>
<tspan x="10" y="1914">  │ │ ├── prr@1.0.1 </tspan>
<tspan x="10" y="1930">  │ │ └── semver@5.1.1 </tspan>
<tspan x="10" y="1946">  │ ├─┬ mongodown@1.1.0 </tspan>
<tspan x="10" y="1962">  │ │ ├── abstract-leveldown@2.6.1 </tspan>
<tspan x="10" y="1978">  │ │ └── after-all@2.0.2 </tspan>
<tspan x="10" y="1994">  │ └─┬ mongojs@2.4.0 </tspan>
<tspan x="10" y="2010">  │   ├── each-series@1.0.0 </tspan>
<tspan x="10" y="2026">  │   ├─┬ once@1.4.0 </tspan>
<tspan x="10" y="2042">  │   │ └── wrappy@1.0.2 </tspan>
<tspan x="10" y="2058">  │   ├── parse-mongo-url@1.1.1 </tspan>
<tspan x="10" y="2074">  │   ├── thunky@0.1.0 </tspan>
<tspan x="10" y="2090">  │   └── to-mongodb-core@2.0.0 </tspan>
<tspan x="10" y="2106">  ├─┬ ss-message@1.1.2 </tspan>
<tspan x="10" y="2122">  │ ├── bot-lang@1.1.1 </tspan>
<tspan x="10" y="2138">  │ ├── compromise@9.1.0 </tspan>
<tspan x="10" y="2154">  │ ├─┬ lemmer@0.2.1 </tspan>
<tspan x="10" y="2170">  │ │ ├─┬ node-wordnet@0.1.12 </tspan>
<tspan x="10" y="2186">  │ │ │ ├── async@0.9.2 </tspan>
<tspan x="10" y="2202">  │ │ │ ├── es6-shim@0.22.2 </tspan>
<tspan x="10" y="2218">  │ │ │ └── lru-cache@2.7.3 </tspan>
<tspan x="10" y="2234">  │ │ └── wndb-with-exceptions@3.0.1 </tspan>
<tspan x="10" y="2250">  │ └── pos@0.4.2 </tspan>
<tspan x="10" y="2266">  ├─┬ ss-parser@1.0.2 </tspan>
<tspan x="10" y="2282">  │ ├─┬ async-replace@1.0.1 </tspan>
<tspan x="10" y="2298">  │ │ └── async@1.5.2 </tspan>
<tspan x="10" y="2314">  │ ├─┬ checksum@0.1.1 </tspan>
<tspan x="10" y="2330">  │ │ └─┬ optimist@0.3.7 </tspan>
<tspan x="10" y="2346">  │ │   └── wordwrap@0.0.3 </tspan>
<tspan x="10" y="2362">  │ └─┬ glob@7.1.1 </tspan>
<tspan x="10" y="2378">  │   ├── fs.realpath@1.0.0 </tspan>
<tspan x="10" y="2394">  │   ├── inflight@1.0.6 </tspan>
<tspan x="10" y="2410">  │   ├─┬ minimatch@3.0.3 </tspan>
<tspan x="10" y="2426">  │   │ └─┬ brace-expansion@1.1.7 </tspan>
<tspan x="10" y="2442">  │   │   ├── balanced-match@0.4.2 </tspan>
<tspan x="10" y="2458">  │   │   └── concat-map@0.0.1 </tspan>
<tspan x="10" y="2474">  │   └── path-is-absolute@1.0.1 </tspan>
<tspan x="10" y="2490">  ├─┬ syllablistic@0.1.0 </tspan>
<tspan x="10" y="2506">  │ └── string@1.7.0 </tspan>
<tspan x="10" y="2522">  └─┬ wordpos@1.1.2 </tspan>
<tspan x="10" y="2538">    └─┬ wordnet-db@3.1.2 </tspan>
<tspan x="10" y="2554">      └─┬ tar@2.2.1 </tspan>
<tspan x="10" y="2570">        ├── block-stream@0.0.9 </tspan>
<tspan x="10" y="2586">        └─┬ fstream@1.0.11 </tspan>
<tspan x="10" y="2602">          ├── graceful-fs@4.1.11 </tspan>
<tspan x="10" y="2618">          └── rimraf@2.6.1</tspan>
</text>
</svg>
